# xmcd
# 
# Track frame offsets:
#     150
#     13879
#     47144
#     67113
#     81414
#     101121
#     128633
#     154003
# 
# Disc length: 2316
# 
# Revision: 1
# Processed by: cddbd v1.5.2PL0 Copyright (c) Steve Scherf et al.
# Submitted via: fre:ac v1.0.31
# 
DISCID=6b090a08
DTITLE=Otis Spann - Sweet Giant Of The Blues
DYEAR=1969
DGENRE=Blues
TTITLE0=Got My Mojo Working
TTITLE1=Sellin' My Thing
TTITLE2=Moon Blues
TTITLE3=I'm A Dues Payin' Man
TTITLE4=I Wonder Why
TTITLE5=Bird In A Cage
TTITLE6=Hey Baby
TTITLE7=Make A Way
EXTD=
EXTT0=
EXTT1=
EXTT2=
EXTT3=
EXTT4=
EXTT5=
EXTT6=
EXTT7=
PLAYORDER=
